RobotoDelta-YOPQmax.ufo
<glyph name="dollar" format="1">
  <advance width="1178"/>
  <unicode hex="0024"/>
  <outline>
    <contour>
      <point x="90" y="459" type="line" smooth="yes"/>
      <point x="90" y="246.0"/>
      <point x="368.0" y="0.0"/>
      <point x="599" y="0" type="qcurve" smooth="yes"/>
      <point x="829.0" y="0.0"/>
      <point x="1098.0" y="255.0"/>
      <point x="1098" y="452" type="qcurve" smooth="yes"/>
      <point x="1098.0" y="644.0"/>
      <point x="894.0" y="851.8097356352109"/>
      <point x="670" y="887" type="qcurve" smooth="yes"/>
      <point x="445.0" y="921.9152410329292"/>
      <point x="301.0" y="976.0"/>
      <point x="301" y="1047" type="qcurve" smooth="yes"/>
      <point x="301.0" y="1115.848275862069"/>
      <point x="441.0" y="1196.0"/>
      <point x="589" y="1196" type="qcurve" smooth="yes"/>
      <point x="737.0" y="1196.0"/>
      <point x="887" y="1088.7777777777778"/>
      <point x="887" y="1003" type="qcurve" smooth="yes"/>
      <point x="887" y="991" type="line"/>
      <point x="1071" y="991" type="line"/>
      <point x="1071" y="1003" type="line" smooth="yes"/>
      <point x="1071" y="1192.0"/>
      <point x="810.0" y="1456.0"/>
      <point x="589" y="1456" type="qcurve" smooth="yes"/>
      <point x="368.0" y="1456.0"/>
      <point x="119.0" y="1205.0"/>
      <point x="119" y="1018" type="qcurve" smooth="yes"/>
      <point x="119.0" y="835.0"/>
      <point x="309.0" y="634.1776292023803"/>
      <point x="537" y="602" type="qcurve" smooth="yes"/>
      <point x="766.0" y="569.0781238590564"/>
      <point x="916.0" y="498.0"/>
      <point x="916" y="423" type="qcurve" smooth="yes"/>
      <point x="916.0" y="350.2138364779874"/>
      <point x="752.0" y="260.0"/>
      <point x="599" y="260" type="qcurve" smooth="yes"/>
      <point x="445.0" y="260.0"/>
      <point x="274" y="360.0102564102564"/>
      <point x="274" y="459" type="qcurve" smooth="yes"/>
      <point x="274" y="471" type="line"/>
      <point x="90" y="471" type="line"/>
    </contour>
    <contour>
      <point x="524" y="-150" type="line"/>
      <point x="674" y="-150" type="line"/>
      <point x="674" y="90" type="line"/>
      <point x="664" y="100" type="line"/>
      <point x="664" y="728" type="line"/>
      <point x="524" y="728" type="line"/>
    </contour>
    <contour>
      <point x="534" y="728" type="line"/>
      <point x="674" y="728" type="line"/>
      <point x="674" y="1606" type="line"/>
      <point x="524" y="1606" type="line"/>
      <point x="524" y="1366" type="line"/>
      <point x="534" y="1356" type="line"/>
    </contour>
  </outline>
</glyph>
<glyph name="ampersand" format="1">
  <advance width="1274"/>
  <unicode hex="0026"/>
  <outline>
    <contour>
      <point x="102" y="421" type="qcurve" smooth="yes"/>
      <point x="102" y="591"/>
      <point x="285" y="769"/>
      <point x="422" y="856" type="qcurve" smooth="yes"/>
      <point x="604" y="974" type="line" smooth="yes"/>
      <point x="697" y="1035"/>
      <point x="760" y="1106"/>
      <point x="760" y="1131" type="qcurve" smooth="yes"/>
      <point x="760" y="1140"/>
      <point x="688" y="1210"/>
      <point x="584" y="1210" type="qcurve" smooth="yes"/>
      <point x="480" y="1210"/>
      <point x="406" y="1122"/>
      <point x="406" y="1094" type="qcurve" smooth="yes"/>
      <point x="406" y="1075"/>
      <point x="499" y="944"/>
      <point x="573" y="867" type="qcurve" smooth="yes"/>
      <point x="1365" y="0" type="line"/>
      <point x="1063" y="0" type="line"/>
      <point x="485" y="631" type="line" smooth="yes"/>
      <point x="371" y="752"/>
      <point x="220" y="944"/>
      <point x="220" y="1089" type="qcurve" smooth="yes"/>
      <point x="220" y="1288"/>
      <point x="443" y="1474"/>
      <point x="585" y="1474" type="qcurve" smooth="yes"/>
      <point x="725" y="1474"/>
      <point x="931" y="1288"/>
      <point x="931" y="1131" type="qcurve" smooth="yes"/>
      <point x="931" y="992"/>
      <point x="813" y="849"/>
      <point x="758" y="811" type="qcurve" smooth="yes"/>
      <point x="469" y="615" type="line" smooth="yes"/>
      <point x="334" y="524"/>
      <point x="287" y="409"/>
      <point x="287" y="421" type="qcurve" smooth="yes"/>
      <point x="287" y="369"/>
      <point x="409" y="247"/>
      <point x="572" y="247" type="qcurve" smooth="yes"/>
      <point x="758" y="247"/>
      <point x="1016" y="501"/>
      <point x="1016" y="740" type="qcurve"/>
      <point x="1182" y="740" type="line"/>
      <point x="1182" y="501"/>
      <point x="1093" y="269"/>
      <point x="997" y="180" type="qcurve" smooth="yes"/>
      <point x="992" y="176"/>
      <point x="982" y="154"/>
      <point x="970" y="143" type="qcurve" smooth="yes"/>
      <point x="889" y="63"/>
      <point x="648" y="-18"/>
      <point x="572" y="-18" type="qcurve" smooth="yes"/>
      <point x="377" y="-18"/>
      <point x="102" y="212"/>
    </contour>
  </outline>
</glyph>
<glyph name="asterisk" format="1">
  <advance width="1058"/>
  <unicode hex="002A"/>
  <outline>
    <contour>
      <point x="64" y="1048" type="line"/>
      <point x="407" y="970" type="line"/>
      <point x="164" y="680" type="line"/>
      <point x="326" y="562" type="line"/>
      <point x="507" y="889" type="line"/>
      <point x="694" y="554" type="line"/>
      <point x="854" y="674" type="line"/>
      <point x="614" y="960" type="line"/>
      <point x="964" y="1037" type="line"/>
      <point x="905" y="1235" type="line"/>
      <point x="579" y="1086" type="line"/>
      <point x="615" y="1477" type="line"/>
      <point x="419" y="1477" type="line"/>
      <point x="451" y="1091" type="line"/>
      <point x="125" y="1242" type="line"/>
    </contour>
  </outline>
</glyph>
<glyph name="slash" format="1">
  <advance width="580"/>
  <unicode hex="002F"/>
  <outline>
    <contour>
      <point x="-102" y="-125" type="line"/>
      <point x="506" y="1456" type="line"/>
      <point x="682" y="1456" type="line"/>
      <point x="75" y="-125" type="line"/>
    </contour>
  </outline>
</glyph>
<glyph name="three" format="1">
  <advance width="1156"/>
  <unicode hex="0033"/>
  <outline>
    <contour>
      <point x="79" y="393" type="line"/>
      <point x="259" y="393" type="line"/>
      <point x="259" y="387" type="line" smooth="yes"/>
      <point x="259" y="321"/>
      <point x="397" y="241"/>
      <point x="555" y="241" type="qcurve" smooth="yes"/>
      <point x="713" y="241"/>
      <point x="852" y="346"/>
      <point x="852" y="441" type="qcurve" smooth="yes"/>
      <point x="852" y="534"/>
      <point x="709" y="622"/>
      <point x="558" y="622" type="qcurve" smooth="yes"/>
      <point x="404" y="622" type="line"/>
      <point x="404" y="890" type="line"/>
      <point x="511" y="890" type="line" smooth="yes"/>
      <point x="680" y="890"/>
      <point x="804" y="983"/>
      <point x="804" y="1048" type="qcurve" smooth="yes"/>
      <point x="804" y="1114"/>
      <point x="698" y="1209"/>
      <point x="558" y="1209" type="qcurve" smooth="yes"/>
      <point x="423" y="1209"/>
      <point x="301" y="1143"/>
      <point x="301" y="1091" type="qcurve" smooth="yes"/>
      <point x="301" y="1085" type="line"/>
      <point x="121" y="1085" type="line"/>
      <point x="121" y="1094" type="line" smooth="yes"/>
      <point x="121" y="1253"/>
      <point x="365" y="1479"/>
      <point x="558" y="1479" type="qcurve" smooth="yes"/>
      <point x="749" y="1479"/>
      <point x="986" y="1279"/>
      <point x="986" y="1101" type="qcurve" smooth="yes"/>
      <point x="986" y="1002"/>
      <point x="883" y="816"/>
      <point x="764" y="766" type="qcurve"/>
      <point x="869" y="738"/>
      <point x="1038" y="563"/>
      <point x="1038" y="404" type="qcurve" smooth="yes"/>
      <point x="1038" y="197"/>
      <point x="760" y="-30"/>
      <point x="555" y="-30" type="qcurve" smooth="yes"/>
      <point x="350" y="-30"/>
      <point x="79" y="192"/>
      <point x="79" y="386" type="qcurve" smooth="yes"/>
    </contour>
  </outline>
</glyph>
<glyph name="seven" format="1">
  <advance width="1156"/>
  <unicode hex="0037"/>
  <outline>
    <contour>
      <point x="294" y="0" type="line"/>
      <point x="807" y="1191" type="line"/>
      <point x="78" y="1191" type="line"/>
      <point x="78" y="1456" type="line"/>
      <point x="1052" y="1456" type="line"/>
      <point x="1052" y="1303" type="line"/>
      <point x="490" y="0" type="line"/>
    </contour>
  </outline>
</glyph>
<glyph name="eight" format="1">
  <advance width="1156"/>
  <unicode hex="0038"/>
  <outline>
    <contour>
      <point x="104" y="384" type="qcurve" smooth="yes"/>
      <point x="104" y="180"/>
      <point x="378" y="-40"/>
      <point x="578" y="-40" type="qcurve" smooth="yes"/>
      <point x="778" y="-40"/>
      <point x="1052" y="180"/>
      <point x="1052" y="384" type="qcurve" smooth="yes"/>
      <point x="1052" y="507"/>
      <point x="910" y="691"/>
      <point x="798" y="739" type="qcurve"/>
      <point x="798" y="759" type="line"/>
      <point x="884" y="809"/>
      <point x="1006" y="974"/>
      <point x="1006" y="1077" type="qcurve" smooth="yes"/>
      <point x="1006" y="1275"/>
      <point x="758" y="1488"/>
      <point x="578" y="1488" type="qcurve" smooth="yes"/>
      <point x="398" y="1488"/>
      <point x="150" y="1275"/>
      <point x="150" y="1077" type="qcurve" smooth="yes"/>
      <point x="150" y="975"/>
      <point x="272" y="810"/>
      <point x="358" y="759" type="qcurve"/>
      <point x="358" y="740" type="line"/>
      <point x="246" y="693"/>
      <point x="104" y="509"/>
    </contour>
    <contour>
      <point x="292" y="1044" type="qcurve" smooth="yes"/>
      <point x="292" y="1123"/>
      <point x="448" y="1208"/>
      <point x="578" y="1208" type="qcurve" smooth="yes"/>
      <point x="708" y="1208"/>
      <point x="864" y="1123"/>
      <point x="864" y="1044" type="qcurve" smooth="yes"/>
      <point x="864" y="965"/>
      <point x="708" y="880"/>
      <point x="578" y="880" type="qcurve" smooth="yes"/>
      <point x="448" y="880"/>
      <point x="292" y="965"/>
    </contour>
    <contour>
      <point x="334" y="414" type="qcurve" smooth="yes"/>
      <point x="334" y="505"/>
      <point x="468" y="607"/>
      <point x="578" y="607" type="qcurve" smooth="yes"/>
      <point x="688" y="607"/>
      <point x="822" y="505"/>
      <point x="822" y="414" type="qcurve" smooth="yes"/>
      <point x="822" y="328"/>
      <point x="688" y="230"/>
      <point x="578" y="230" type="qcurve" smooth="yes"/>
      <point x="468" y="230"/>
      <point x="334" y="328"/>
    </contour>
  </outline>
</glyph>
<glyph name="nine" format="1">
  <advance width="1156"/>
  <unicode hex="0039"/>
  <outline>
    <contour>
      <point x="72" y="985" type="qcurve" smooth="yes"/>
      <point x="72" y="730"/>
      <point x="317" y="478"/>
      <point x="516" y="478" type="qcurve" smooth="yes"/>
      <point x="716" y="478"/>
      <point x="956" y="663"/>
      <point x="956" y="825" type="qcurve"/>
      <point x="886" y="1090" type="line"/>
      <point x="886" y="910"/>
      <point x="686" y="746"/>
      <point x="556" y="746" type="qcurve" smooth="yes"/>
      <point x="416" y="746"/>
      <point x="262" y="859"/>
      <point x="262" y="980" type="qcurve" smooth="yes"/>
      <point x="262" y="1100"/>
      <point x="416" y="1211"/>
      <point x="556" y="1211" type="qcurve" smooth="yes"/>
      <point x="696" y="1211"/>
      <point x="880" y="1001"/>
      <point x="880" y="835" type="qcurve" smooth="yes"/>
      <point x="880" y="790" type="line" smooth="yes"/>
      <point x="880" y="543"/>
      <point x="556" y="233"/>
      <point x="276" y="233" type="qcurve" smooth="yes"/>
      <point x="256" y="233" type="line"/>
      <point x="256" y="-37" type="line"/>
      <point x="276" y="-37" type="line" smooth="yes"/>
      <point x="656" y="-37"/>
      <point x="1068" y="394"/>
      <point x="1068" y="801" type="qcurve" smooth="yes"/>
      <point x="1068" y="815" type="line" smooth="yes"/>
      <point x="1068" y="1124"/>
      <point x="766" y="1481"/>
      <point x="556" y="1481" type="qcurve" smooth="yes"/>
      <point x="346" y="1481"/>
      <point x="72" y="1214"/>
    </contour>
  </outline>
</glyph>
<glyph name="semicolon" format="1">
  <advance width="600"/>
  <unicode hex="003B"/>
  <outline>
    <contour>
      <point x="176" y="896" type="qcurve" smooth="yes"/>
      <point x="176" y="986"/>
      <point x="261" y="1066"/>
      <point x="300" y="1066" type="qcurve" smooth="yes"/>
      <point x="339" y="1066"/>
      <point x="424" y="986"/>
      <point x="424" y="896" type="qcurve" smooth="yes"/>
      <point x="424" y="806"/>
      <point x="339" y="726"/>
      <point x="300" y="726" type="qcurve" smooth="yes"/>
      <point x="261" y="726"/>
      <point x="176" y="806"/>
    </contour>
    <contour>
      <point x="67" y="-142" type="line"/>
      <point x="168" y="-19"/>
      <point x="218" y="98"/>
      <point x="218" y="126" type="qcurve" smooth="yes"/>
      <point x="218" y="325" type="line"/>
      <point x="399" y="325" type="line"/>
      <point x="399" y="128" type="line" smooth="yes"/>
      <point x="399" y="6"/>
      <point x="303" y="-180"/>
      <point x="223" y="-237" type="qcurve"/>
    </contour>
  </outline>
</glyph>
<glyph name="less" format="1">
  <advance width="1170"/>
  <unicode hex="003C"/>
  <outline>
    <contour>
      <point x="990" y="123" type="line"/>
      <point x="990" y="483" type="line"/>
      <point x="386" y="674" type="line"/>
      <point x="990" y="865" type="line"/>
      <point x="990" y="1225" type="line"/>
      <point x="172" y="809" type="line"/>
      <point x="172" y="539" type="line"/>
    </contour>
  </outline>
</glyph>
<glyph name="greater" format="1">
  <advance width="1170"/>
  <unicode hex="003E"/>
  <outline>
    <contour>
      <point x="180" y="123" type="line"/>
      <point x="998" y="539" type="line"/>
      <point x="998" y="809" type="line"/>
      <point x="180" y="1225" type="line"/>
      <point x="180" y="865" type="line"/>
      <point x="784" y="674" type="line"/>
      <point x="180" y="483" type="line"/>
    </contour>
  </outline>
</glyph>
<glyph name="C" format="1">
  <advance width="1325"/>
  <unicode hex="0043"/>
  <outline>
    <contour>
      <point x="115" y="682" type="line" smooth="yes"/>
      <point x="115" y="346"/>
      <point x="460" y="-30"/>
      <point x="720" y="-30" type="qcurve" smooth="yes"/>
      <point x="980.0" y="-30.0"/>
      <point x="1254" y="285"/>
      <point x="1274" y="506" type="qcurve" smooth="yes"/>
      <point x="1275" y="516" type="line"/>
      <point x="1083" y="516" type="line"/>
      <point x="1082" y="506" type="line" smooth="yes"/>
      <point x="1070.0" y="409.8382382764203"/>
      <point x="900.0" y="250.0"/>
      <point x="720" y="250" type="qcurve" smooth="yes"/>
      <point x="540.0" y="250.0"/>
      <point x="309" y="480.18978102189783"/>
      <point x="309" y="682" type="qcurve" smooth="yes"/>
      <point x="309" y="774" type="line" smooth="yes"/>
      <point x="309" y="975.8102189781022"/>
      <point x="540.0" y="1206.0"/>
      <point x="720" y="1206" type="qcurve" smooth="yes"/>
      <point x="900.0" y="1206.0"/>
      <point x="1070.0" y="1046.1617617235795"/>
      <point x="1082" y="950" type="qcurve" smooth="yes"/>
      <point x="1083" y="940" type="line"/>
      <point x="1275" y="940" type="line"/>
      <point x="1274" y="950" type="line" smooth="yes"/>
      <point x="1254" y="1171"/>
      <point x="980.0" y="1486.0"/>
      <point x="720" y="1486" type="qcurve" smooth="yes"/>
      <point x="460" y="1486"/>
      <point x="115" y="1110"/>
      <point x="115" y="774" type="qcurve" smooth="yes"/>
    </contour>
  </outline>
</glyph>
<glyph name="F" format="1">
  <advance width="1130"/>
  <unicode hex="0046"/>
  <outline>
    <contour>
      <point x="170" y="0" type="line"/>
      <point x="362" y="0" type="line"/>
      <point x="362" y="531" type="line"/>
      <point x="973" y="531" type="line"/>
      <point x="973" y="801" type="line"/>
      <point x="362" y="801" type="line"/>
      <point x="362" y="1186" type="line"/>
      <point x="1072" y="1186" type="line"/>
      <point x="1072" y="1456" type="line"/>
      <point x="170" y="1456" type="line"/>
    </contour>
  </outline>
</glyph>
<glyph name="N" format="1">
  <advance width="1500"/>
  <unicode hex="004E"/>
  <outline>
    <contour>
      <point x="170" y="0" type="line"/>
      <point x="170" y="1456" type="line"/>
      <point x="385" y="1456" type="line"/>
      <point x="984" y="539" type="line" smooth="yes"/>
      <point x="993" y="525"/>
      <point x="1044" y="442"/>
      <point x="1053" y="422" type="qcurve"/>
      <point x="1068" y="422" type="line"/>
      <point x="1067" y="442"/>
      <point x="1064" y="537"/>
      <point x="1064" y="558" type="qcurve" smooth="yes"/>
      <point x="1064" y="1456" type="line"/>
      <point x="1330" y="1456" type="line"/>
      <point x="1330" y="0" type="line"/>
      <point x="1116" y="0" type="line"/>
      <point x="486" y="973" type="line" smooth="yes"/>
      <point x="477" y="987"/>
      <point x="446" y="1034"/>
      <point x="437" y="1054" type="qcurve"/>
      <point x="434" y="1054" type="line"/>
      <point x="435" y="1034"/>
      <point x="436" y="973"/>
      <point x="436" y="952" type="qcurve" smooth="yes"/>
      <point x="436" y="0" type="line"/>
    </contour>
    <contour>
      <point x="770" y="1432" type="move" name="top"/>
    </contour>
  </outline>
</glyph>
<glyph name="R" format="1">
  <advance width="1247"/>
  <unicode hex="0052"/>
  <outline>
    <contour>
      <point x="170" y="0" type="line"/>
      <point x="170" y="1456" type="line"/>
      <point x="622" y="1456" type="line" smooth="yes"/>
      <point x="843" y="1456"/>
      <point x="1132" y="1233"/>
      <point x="1132" y="994" type="qcurve" smooth="yes"/>
      <point x="1132" y="795"/>
      <point x="908" y="577"/>
      <point x="705" y="539" type="qcurve"/>
      <point x="363" y="539" type="line"/>
      <point x="363" y="0" type="line"/>
    </contour>
    <contour>
      <point x="363" y="809" type="line"/>
      <point x="628" y="809" type="line" smooth="yes"/>
      <point x="802" y="809"/>
      <point x="940" y="935"/>
      <point x="940" y="994" type="qcurve" smooth="yes"/>
      <point x="940" y="1063"/>
      <point x="808" y="1185"/>
      <point x="622" y="1185" type="qcurve" smooth="yes"/>
      <point x="363" y="1185" type="line"/>
    </contour>
    <contour>
      <point x="997" y="0" type="line"/>
      <point x="643" y="661" type="line"/>
      <point x="847" y="661" type="line"/>
      <point x="1213" y="0" type="line"/>
    </contour>
  </outline>
</glyph>
<glyph name="S" format="1">
  <advance width="1220"/>
  <unicode hex="0053"/>
  <outline>
    <contour>
      <point x="90" y="448" type="line" smooth="yes"/>
      <point x="90" y="226"/>
      <point x="380" y="-30"/>
      <point x="620" y="-30" type="qcurve" smooth="yes"/>
      <point x="860" y="-30"/>
      <point x="1140" y="235"/>
      <point x="1140" y="440" type="qcurve" smooth="yes"/>
      <point x="1140" y="645"/>
      <point x="928" y="868"/>
      <point x="694" y="904" type="qcurve" smooth="yes"/>
      <point x="460" y="940"/>
      <point x="310" y="990"/>
      <point x="310" y="1060" type="qcurve" smooth="yes"/>
      <point x="310" y="1130"/>
      <point x="456" y="1211"/>
      <point x="610" y="1211" type="qcurve" smooth="yes"/>
      <point x="764" y="1211"/>
      <point x="920" y="1102"/>
      <point x="920" y="1014" type="qcurve" smooth="yes"/>
      <point x="920" y="1002" type="line"/>
      <point x="1112" y="1002" type="line"/>
      <point x="1112" y="1014" type="line" smooth="yes"/>
      <point x="1112" y="1211"/>
      <point x="840" y="1486"/>
      <point x="610" y="1486" type="qcurve" smooth="yes"/>
      <point x="380" y="1486"/>
      <point x="120" y="1225"/>
      <point x="120" y="1030" type="qcurve" smooth="yes"/>
      <point x="120" y="835"/>
      <point x="318" y="620"/>
      <point x="556" y="586" type="qcurve" smooth="yes"/>
      <point x="794" y="552"/>
      <point x="950" y="484"/>
      <point x="950" y="410" type="qcurve" smooth="yes"/>
      <point x="950" y="336"/>
      <point x="780" y="245"/>
      <point x="620" y="245" type="qcurve" smooth="yes"/>
      <point x="460" y="245"/>
      <point x="282" y="347"/>
      <point x="282" y="448" type="qcurve" smooth="yes"/>
      <point x="282" y="460" type="line"/>
      <point x="90" y="460" type="line"/>
    </contour>
  </outline>
</glyph>
<glyph name="Y" format="1">
  <advance width="1228"/>
  <unicode hex="0059"/>
  <outline>
    <contour>
      <point x="518" y="0" type="line"/>
      <point x="710" y="0" type="line"/>
      <point x="710" y="480" type="line"/>
      <point x="1213" y="1456" type="line"/>
      <point x="1005" y="1456" type="line"/>
      <point x="673" y="920" type="line" smooth="yes"/>
      <point x="657" y="890"/>
      <point x="630" y="830"/>
      <point x="619" y="800" type="qcurve"/>
      <point x="613" y="800" type="line"/>
      <point x="602" y="830"/>
      <point x="575" y="890"/>
      <point x="559" y="920" type="qcurve" smooth="yes"/>
      <point x="231" y="1456" type="line"/>
      <point x="15" y="1456" type="line"/>
      <point x="518" y="480" type="line"/>
    </contour>
  </outline>
</glyph>
<glyph name="b" format="1">
  <advance width="1168"/>
  <unicode hex="0062"/>
  <outline>
    <contour>
      <point x="148" y="0" type="line"/>
      <point x="318" y="0" type="line"/>
      <point x="329" y="150" type="line"/>
      <point x="383" y="71"/>
      <point x="549" y="-15"/>
      <point x="662" y="-15" type="qcurve" smooth="yes"/>
      <point x="862" y="-15"/>
      <point x="1083" y="295"/>
      <point x="1083" y="529" type="qcurve" smooth="yes"/>
      <point x="1083" y="550" type="line" smooth="yes"/>
      <point x="1083" y="789"/>
      <point x="863" y="1082"/>
      <point x="660" y="1082" type="qcurve" smooth="yes"/>
      <point x="550" y="1082"/>
      <point x="388" y="1005"/>
      <point x="334" y="932" type="qcurve"/>
      <point x="334" y="1536" type="line"/>
      <point x="148" y="1536" type="line"/>
    </contour>
    <contour>
      <point x="334" y="348" type="qcurve"/>
      <point x="334" y="733" type="line"/>
      <point x="363" y="811"/>
      <point x="499" y="926"/>
      <point x="614" y="926" type="qcurve" smooth="yes"/>
      <point x="771" y="926"/>
      <point x="897" y="703"/>
      <point x="897" y="550" type="qcurve" smooth="yes"/>
      <point x="897" y="529" type="line" smooth="yes"/>
      <point x="897" y="371"/>
      <point x="765" y="142"/>
      <point x="616" y="142" type="qcurve" smooth="yes"/>
      <point x="503" y="142"/>
      <point x="366" y="264"/>
    </contour>
  </outline>
</glyph>
<glyph name="e" format="1">
  <advance width="1059"/>
  <unicode hex="0065"/>
  <outline>
    <contour>
      <point x="85.0" y="503.0" type="qcurve" smooth="yes"/>
      <point x="85.0" y="545.0" type="line" smooth="yes"/>
      <point x="85.0" y="782.0"/>
      <point x="344.0" y="1082.0"/>
      <point x="569.0" y="1082.0" type="qcurve" smooth="yes"/>
      <point x="792.0" y="1082.0"/>
      <point x="1003.0" y="783.0"/>
      <point x="1003.0" y="572.0" type="qcurve" smooth="yes"/>
      <point x="1003.0" y="427.0" type="line"/>
      <point x="195.0" y="427.0" type="line"/>
      <point x="195.0" y="688.0" type="line"/>
      <point x="818.0" y="688.0" type="line"/>
      <point x="818.0" y="694.0" type="line" smooth="yes"/>
      <point x="818.0" y="740.0"/>
      <point x="698.0" y="813.0"/>
      <point x="568.0" y="813.0" type="qcurve" smooth="yes"/>
      <point x="429.0" y="813.0"/>
      <point x="267.0" y="660.0"/>
      <point x="267.0" y="546.0" type="qcurve" smooth="yes"/>
      <point x="267.0" y="503.0" type="line" smooth="yes"/>
      <point x="267.0" y="399.0"/>
      <point x="423.0" y="246.0"/>
      <point x="607.0" y="246.0" type="qcurve" smooth="yes"/>
      <point x="684.0" y="246.0"/>
      <point x="812" y="266"/>
      <point x="847" y="284" type="qcurve" smooth="yes"/>
      <point x="861.0" y="291.0" type="line"/>
      <point x="998.0" y="177.0" type="line"/>
      <point x="985.0" y="157.0" type="line" smooth="yes"/>
      <point x="941.0" y="89.0"/>
      <point x="753.0" y="-30.0"/>
      <point x="582.0" y="-30.0" type="qcurve" smooth="yes"/>
      <point x="333.0" y="-30.0"/>
      <point x="85.0" y="275.0"/>
    </contour>
    <contour>
      <point x="558.0" y="1053.0" type="move" name="top"/>
    </contour>
  </outline>
</glyph>
<glyph name="i" format="1">
  <advance width="500"/>
  <unicode hex="0069"/>
  <outline>
    <contour>
      <point x="157" y="0" type="line"/>
      <point x="343" y="0" type="line"/>
      <point x="343" y="1052" type="line"/>
      <point x="157" y="1052" type="line"/>
    </contour>
    <contour>
      <point x="140" y="1300" type="qcurve" smooth="yes"/>
      <point x="140" y="1225"/>
      <point x="197" y="1124"/>
      <point x="250" y="1124" type="qcurve" smooth="yes"/>
      <point x="303" y="1124"/>
      <point x="360" y="1225"/>
      <point x="360" y="1300" type="qcurve" smooth="yes"/>
      <point x="360" y="1375"/>
      <point x="303" y="1476"/>
      <point x="250" y="1476" type="qcurve" smooth="yes"/>
      <point x="197" y="1476"/>
      <point x="140" y="1375"/>
    </contour>
  </outline>
</glyph>
<glyph name="j" format="1">
  <advance width="500"/>
  <unicode hex="006A"/>
  <outline>
    <contour>
      <point x="-94" y="-410" type="line"/>
      <point x="-69.0" y="-419.9777699821864"/>
      <point x="30.0" y="-436.0"/>
      <point x="70" y="-436" type="qcurve" smooth="yes"/>
      <point x="204.0" y="-436.0"/>
      <point x="343" y="-270.0"/>
      <point x="343" y="-90" type="qcurve" smooth="yes"/>
      <point x="343" y="1052" type="line"/>
      <point x="157" y="1052" type="line"/>
      <point x="157" y="-26" type="line" smooth="yes"/>
      <point x="157" y="-106"/>
      <point x="90" y="-176"/>
      <point x="30" y="-176" type="qcurve" smooth="yes"/>
      <point x="0" y="-176"/>
      <point x="-74" y="-162"/>
      <point x="-94" y="-156" type="qcurve"/>
    </contour>
    <contour>
      <point x="140" y="1300" type="qcurve" smooth="yes"/>
      <point x="140" y="1225"/>
      <point x="197" y="1124"/>
      <point x="250" y="1124" type="qcurve" smooth="yes"/>
      <point x="303" y="1124"/>
      <point x="360" y="1225"/>
      <point x="360" y="1300" type="qcurve" smooth="yes"/>
      <point x="360" y="1375"/>
      <point x="303" y="1476"/>
      <point x="250" y="1476" type="qcurve" smooth="yes"/>
      <point x="197" y="1476"/>
      <point x="140" y="1375"/>
    </contour>
  </outline>
</glyph>
<glyph name="k" format="1">
  <advance width="1028"/>
  <unicode hex="006B"/>
  <outline>
    <contour>
      <point x="148" y="0" type="line"/>
      <point x="334" y="0" type="line"/>
      <point x="334" y="245" type="line"/>
      <point x="995" y="1052" type="line"/>
      <point x="774" y="1052" type="line"/>
      <point x="334" y="686" type="line"/>
      <point x="334" y="1536" type="line"/>
      <point x="148" y="1536" type="line"/>
    </contour>
    <contour>
      <point x="818" y="0" type="line"/>
      <point x="1044" y="0" type="line"/>
      <point x="531" y="736" type="line"/>
      <point x="407" y="488" type="line"/>
    </contour>
  </outline>
</glyph>
<glyph name="w" format="1">
  <advance width="1586"/>
  <unicode hex="0077"/>
  <outline>
    <contour>
      <point x="24" y="1052" type="line"/>
      <point x="209" y="1052" type="line"/>
      <point x="401" y="359" type="line" smooth="yes"/>
      <point x="405" y="344"/>
      <point x="414" y="300"/>
      <point x="417" y="287" type="qcurve"/>
      <point x="420" y="287" type="line"/>
      <point x="423" y="300"/>
      <point x="433" y="343"/>
      <point x="438" y="358" type="qcurve" smooth="yes"/>
      <point x="661" y="1052" type="line"/>
      <point x="854" y="1052" type="line"/>
      <point x="1090" y="359" type="line" smooth="yes"/>
      <point x="1099" y="333"/>
      <point x="1109" y="301"/>
      <point x="1110" y="287" type="qcurve"/>
      <point x="1113" y="287" type="line"/>
      <point x="1113" y="301"/>
      <point x="1121" y="335"/>
      <point x="1127" y="358" type="qcurve" smooth="yes"/>
      <point x="1318" y="1052" type="line"/>
      <point x="1562" y="1052" type="line"/>
      <point x="1238" y="0" type="line"/>
      <point x="1058" y="0" type="line"/>
      <point x="810" y="679" type="line" smooth="yes"/>
      <point x="800" y="708"/>
      <point x="790" y="749"/>
      <point x="787" y="782" type="qcurve"/>
      <point x="784" y="782" type="line"/>
      <point x="781" y="749"/>
      <point x="767" y="708"/>
      <point x="757" y="678" type="qcurve" smooth="yes"/>
      <point x="529" y="0" type="line"/>
      <point x="348" y="0" type="line"/>
    </contour>
  </outline>
</glyph>
<glyph name="x" format="1">
  <advance width="1027"/>
  <unicode hex="0078"/>
  <outline>
    <contour>
      <point x="24" y="0" type="line"/>
      <point x="426" y="590" type="line"/>
      <point x="428" y="590" type="line"/>
      <point x="718" y="1052" type="line"/>
      <point x="992" y="1052" type="line"/>
      <point x="606" y="471" type="line"/>
      <point x="604" y="471" type="line"/>
      <point x="298" y="0" type="line"/>
    </contour>
    <contour>
      <point x="74" y="1052" type="line"/>
      <point x="284" y="1052" type="line"/>
      <point x="560" y="610" type="line"/>
      <point x="595" y="610" type="line"/>
      <point x="1003" y="0" type="line"/>
      <point x="792" y="0" type="line"/>
      <point x="491" y="471" type="line"/>
      <point x="460" y="471" type="line"/>
    </contour>
  </outline>
</glyph>
<glyph name="y" format="1">
  <advance width="966"/>
  <unicode hex="0079"/>
  <outline>
    <contour>
      <point x="32" y="-413" type="qcurve"/>
      <point x="32" y="-158" type="line"/>
      <point x="48" y="-160"/>
      <point x="81" y="-163"/>
      <point x="159" y="-163" type="qcurve" smooth="yes"/>
      <point x="226" y="-163"/>
      <point x="312" y="-42"/>
      <point x="345" y="39" type="qcurve" smooth="yes"/>
      <point x="366" y="90" type="line"/>
      <point x="8" y="1052" type="line"/>
      <point x="200" y="1052" type="line"/>
      <point x="438" y="359" type="line" smooth="yes"/>
      <point x="446" y="336"/>
      <point x="455" y="308"/>
      <point x="458" y="295" type="qcurve"/>
      <point x="461" y="295" type="line"/>
      <point x="464" y="308"/>
      <point x="468" y="335"/>
      <point x="475" y="358" type="qcurve" smooth="yes"/>
      <point x="703" y="1052" type="line"/>
      <point x="966" y="1052" type="line"/>
      <point x="536" y="-167" type="line" smooth="yes"/>
      <point x="492" y="-291"/>
      <point x="302" y="-437"/>
      <point x="175" y="-437" type="qcurve" smooth="yes"/>
      <point x="138" y="-437"/>
      <point x="53" y="-426"/>
    </contour>
    <contour>
      <point x="470.0" y="1052.0" type="move" name="top"/>
    </contour>
  </outline>
</glyph>
<glyph name="currency" format="1">
  <advance width="1461"/>
  <unicode hex="00A4"/>
  <outline>
    <contour>
      <point x="321" y="622" type="qcurve" smooth="yes"/>
      <point x="321" y="818"/>
      <point x="555" y="1074"/>
      <point x="735" y="1074" type="qcurve" smooth="yes"/>
      <point x="909" y="1074"/>
      <point x="1148" y="809"/>
      <point x="1148" y="622" type="qcurve" smooth="yes"/>
      <point x="1148" y="429"/>
      <point x="916" y="169"/>
      <point x="735" y="169" type="qcurve" smooth="yes"/>
      <point x="562" y="169"/>
      <point x="321" y="436"/>
    </contour>
    <contour>
      <point x="146" y="622" type="qcurve" smooth="yes"/>
      <point x="146" y="360"/>
      <point x="493" y="1"/>
      <point x="735" y="1" type="qcurve" smooth="yes"/>
      <point x="967" y="1"/>
      <point x="1325" y="367"/>
      <point x="1325" y="622" type="qcurve" smooth="yes"/>
      <point x="1325" y="884"/>
      <point x="978" y="1241"/>
      <point x="735" y="1241" type="qcurve" smooth="yes"/>
      <point x="509" y="1241"/>
      <point x="146" y="872"/>
    </contour>
    <contour>
      <point x="1371" y="1142" type="line"/>
      <point x="1239" y="1279" type="line"/>
      <point x="1037" y="1073" type="line"/>
      <point x="1169" y="936" type="line"/>
    </contour>
    <contour>
      <point x="438" y="194" type="line"/>
      <point x="307" y="329" type="line"/>
      <point x="105" y="124" type="line"/>
      <point x="236" y="-12" type="line"/>
    </contour>
    <contour>
      <point x="1239" y="-13" type="line"/>
      <point x="1371" y="124" type="line"/>
      <point x="1169" y="329" type="line"/>
      <point x="1037" y="193" type="line"/>
    </contour>
    <contour>
      <point x="307" y="936" type="line"/>
      <point x="438" y="1072" type="line"/>
      <point x="236" y="1278" type="line"/>
      <point x="105" y="1142" type="line"/>
    </contour>
  </outline>
</glyph>
<glyph name="section" format="1">
  <advance width="1182"/>
  <unicode hex="00A7"/>
  <outline>
    <contour>
      <point x="1048" y="-18" type="qcurve" smooth="yes"/>
      <point x="1048" y="-213"/>
      <point x="774" y="-412"/>
      <point x="583" y="-412" type="qcurve" smooth="yes"/>
      <point x="403" y="-412"/>
      <point x="126" y="-203"/>
      <point x="126" y="10" type="qcurve" smooth="yes"/>
      <point x="126" y="90" type="line"/>
      <point x="289" y="90" type="line"/>
      <point x="289" y="7" type="line" smooth="yes"/>
      <point x="289" y="-45"/>
      <point x="427" y="-139"/>
      <point x="587" y="-139" type="qcurve" smooth="yes"/>
      <point x="752" y="-139"/>
      <point x="875" y="-60"/>
      <point x="875" y="-28" type="qcurve" smooth="yes"/>
      <point x="875" y="-1"/>
      <point x="734" y="85"/>
      <point x="494" y="169" type="qcurve" smooth="yes"/>
      <point x="341" y="224"/>
      <point x="134" y="382"/>
      <point x="134" y="560" type="qcurve" smooth="yes"/>
      <point x="134" y="698"/>
      <point x="249" y="841"/>
      <point x="224" y="832" type="qcurve"/>
      <point x="267" y="805"/>
      <point x="195" y="928"/>
      <point x="195" y="1049" type="qcurve" smooth="yes"/>
      <point x="195" y="1219"/>
      <point x="462" y="1431"/>
      <point x="615" y="1431" type="qcurve" smooth="yes"/>
      <point x="786" y="1431"/>
      <point x="1032" y="1230"/>
      <point x="1032" y="1021" type="qcurve" smooth="yes"/>
      <point x="1032" y="943" type="line"/>
      <point x="868" y="943" type="line"/>
      <point x="868" y="1025" type="line" smooth="yes"/>
      <point x="868" y="1074"/>
      <point x="762" y="1155"/>
      <point x="611" y="1155" type="qcurve" smooth="yes"/>
      <point x="456" y="1155"/>
      <point x="368" y="1089"/>
      <point x="368" y="1059" type="qcurve" smooth="yes"/>
      <point x="368" y="1033"/>
      <point x="485" y="954"/>
      <point x="710" y="869" type="qcurve" smooth="yes"/>
      <point x="849" y="817"/>
      <point x="1048" y="674"/>
      <point x="1048" y="500" type="qcurve" smooth="yes"/>
      <point x="1048" y="349"/>
      <point x="903" y="218"/>
      <point x="816" y="263" type="qcurve"/>
      <point x="940" y="255"/>
      <point x="1048" y="117"/>
    </contour>
    <contour>
      <point x="589" y="399" type="qcurve" smooth="yes"/>
      <point x="696" y="369"/>
      <point x="885" y="461"/>
      <point x="885" y="485" type="qcurve" smooth="yes"/>
      <point x="885" y="518"/>
      <point x="736" y="588"/>
      <point x="523" y="682" type="qcurve" smooth="yes"/>
      <point x="447" y="715"/>
      <point x="289" y="640"/>
      <point x="289" y="576" type="qcurve" smooth="yes"/>
      <point x="289" y="536"/>
      <point x="422" y="446"/>
    </contour>
  </outline>
</glyph>
<glyph name="ordfeminine" format="1">
  <advance width="916"/>
  <unicode hex="00AA"/>
  <outline>
    <contour>
      <point x="91" y="818" type="qcurve" smooth="yes"/>
      <point x="91" y="971"/>
      <point x="312" y="1123"/>
      <point x="461" y="1123" type="qcurve" smooth="yes"/>
      <point x="668" y="1123" type="line"/>
      <point x="668" y="1089" type="line" smooth="yes"/>
      <point x="668" y="1108"/>
      <point x="603" y="1167"/>
      <point x="486" y="1167" type="qcurve" smooth="yes"/>
      <point x="371" y="1167"/>
      <point x="309" y="1134"/>
      <point x="309" y="1140" type="qcurve" smooth="yes"/>
      <point x="309" y="1049" type="line"/>
      <point x="133" y="1049" type="line"/>
      <point x="133" y="1138" type="line" smooth="yes"/>
      <point x="133" y="1274"/>
      <point x="355" y="1419"/>
      <point x="477" y="1419" type="qcurve" smooth="yes"/>
      <point x="622" y="1419"/>
      <point x="830" y="1277"/>
      <point x="830" y="1104" type="qcurve" smooth="yes"/>
      <point x="830" y="774" type="line" smooth="yes"/>
      <point x="830" y="779"/>
      <point x="846" y="697"/>
      <point x="861" y="667" type="qcurve"/>
      <point x="861" y="546" type="line"/>
      <point x="721" y="546" type="line"/>
      <point x="691" y="582"/>
      <point x="673" y="640"/>
      <point x="671" y="666" type="qcurve"/>
      <point x="635" y="619"/>
      <point x="464" y="533"/>
      <point x="375" y="533" type="qcurve" smooth="yes"/>
      <point x="288" y="533"/>
      <point x="91" y="667"/>
    </contour>
    <contour>
      <point x="275" y="836" type="qcurve" smooth="yes"/>
      <point x="275" y="832"/>
      <point x="337" y="789"/>
      <point x="445" y="789" type="qcurve" smooth="yes"/>
      <point x="565" y="789"/>
      <point x="665" y="866"/>
      <point x="668" y="903" type="qcurve"/>
      <point x="668" y="882" type="line"/>
      <point x="514" y="882" type="line" smooth="yes"/>
      <point x="374" y="882"/>
      <point x="275" y="843"/>
    </contour>
  </outline>
</glyph>
<glyph name="logicalnot" format="1">
  <advance width="1170"/>
  <unicode hex="00AC"/>
  <outline>
    <contour>
      <point x="137" y="833" type="line"/>
      <point x="1058" y="833" type="line"/>
      <point x="1058" y="329" type="line"/>
      <point x="883" y="329" type="line"/>
      <point x="883" y="544" type="line"/>
      <point x="137" y="544" type="line"/>
    </contour>
  </outline>
</glyph>
<glyph name="registered" format="1">
  <advance width="1742"/>
  <unicode hex="00AE"/>
  <outline>
    <contour>
      <point x="247" y="699" type="qcurve" smooth="yes"/>
      <point x="247" y="959"/>
      <point x="593" y="1331"/>
      <point x="872" y="1331" type="qcurve" smooth="yes"/>
      <point x="1138" y="1331"/>
      <point x="1494" y="948"/>
      <point x="1494" y="699" type="qcurve" smooth="yes"/>
      <point x="1494" y="424"/>
      <point x="1151" y="64"/>
      <point x="872" y="64" type="qcurve" smooth="yes"/>
      <point x="605" y="64"/>
      <point x="247" y="449"/>
    </contour>
    <contour>
      <point x="94" y="699" type="qcurve" smooth="yes"/>
      <point x="94" y="363"/>
      <point x="566" y="-82"/>
      <point x="872" y="-82" type="qcurve" smooth="yes"/>
      <point x="1188" y="-82"/>
      <point x="1648" y="356"/>
      <point x="1648" y="699" type="qcurve" smooth="yes"/>
      <point x="1648" y="1033"/>
      <point x="1178" y="1478"/>
      <point x="872" y="1478" type="qcurve" smooth="yes"/>
      <point x="566" y="1478"/>
      <point x="94" y="1033"/>
    </contour>
    <contour>
      <point x="890" y="632" type="line"/>
      <point x="1090" y="286" type="line"/>
      <point x="1263" y="286" type="line"/>
      <point x="1027" y="690" type="line"/>
    </contour>
    <contour>
      <point x="952" y="595" type="line"/>
      <point x="1020" y="629" type="line"/>
      <point x="1098" y="657"/>
      <point x="1202" y="789"/>
      <point x="1202" y="870" type="qcurve" smooth="yes"/>
      <point x="1202" y="998"/>
      <point x="1027" y="1135"/>
      <point x="880" y="1135" type="qcurve" smooth="yes"/>
      <point x="573" y="1135" type="line"/>
      <point x="573" y="287" type="line"/>
      <point x="731" y="287" type="line"/>
      <point x="731" y="595" type="line"/>
    </contour>
    <contour>
      <point x="731" y="1008" type="line"/>
      <point x="880" y="1008" type="line" smooth="yes"/>
      <point x="966" y="1009"/>
      <point x="1042" y="938"/>
      <point x="1042" y="864" type="qcurve" smooth="yes"/>
      <point x="1042" y="806"/>
      <point x="965" y="724"/>
      <point x="902" y="723" type="qcurve" smooth="yes"/>
      <point x="731" y="723" type="line"/>
    </contour>
  </outline>
</glyph>
<glyph name="plusminus" format="1">
  <advance width="1170"/>
  <unicode hex="00B1"/>
  <outline>
    <contour>
      <point x="140" y="626" type="line"/>
      <point x="1030" y="626" type="line"/>
      <point x="1030" y="886" type="line"/>
      <point x="140" y="886" type="line"/>
    </contour>
    <contour>
      <point x="497" y="340" type="line"/>
      <point x="673" y="340" type="line"/>
      <point x="673" y="1200" type="line"/>
      <point x="497" y="1200" type="line"/>
    </contour>
    <contour>
      <point x="140" y="0" type="line"/>
      <point x="1030" y="0" type="line"/>
      <point x="1030" y="260" type="line"/>
      <point x="140" y="260" type="line"/>
    </contour>
  </outline>
</glyph>
<glyph name="multiply" format="1">
  <advance width="1170"/>
  <unicode hex="00D7"/>
  <outline>
    <contour>
      <point x="85" y="351" type="line"/>
      <point x="916" y="1092" type="line"/>
      <point x="1081" y="941" type="line"/>
      <point x="250" y="201" type="line"/>
    </contour>
    <contour>
      <point x="87" y="942" type="line"/>
      <point x="254" y="1094" type="line"/>
      <point x="1085" y="353" type="line"/>
      <point x="918" y="202" type="line"/>
    </contour>
  </outline>
</glyph>
<glyph name="oslash" format="1">
  <advance width="1162"/>
  <unicode hex="00F8"/>
  <outline>
    <contour>
      <point x="85" y="511" type="qcurve" smooth="yes"/>
      <point x="85" y="540" type="line" smooth="yes"/>
      <point x="85" y="793"/>
      <point x="376" y="1078"/>
      <point x="580" y="1078" type="qcurve" smooth="yes"/>
      <point x="793" y="1078"/>
      <point x="1077" y="799"/>
      <point x="1077" y="540" type="qcurve" smooth="yes"/>
      <point x="1077" y="511" type="line" smooth="yes"/>
      <point x="1077" y="258"/>
      <point x="787" y="-26"/>
      <point x="582" y="-26" type="qcurve" smooth="yes"/>
      <point x="376" y="-26"/>
      <point x="85" y="258"/>
    </contour>
    <contour>
      <point x="275" y="540" type="qcurve" smooth="yes"/>
      <point x="275" y="511" type="line" smooth="yes"/>
      <point x="275" y="413"/>
      <point x="411" y="239"/>
      <point x="582" y="239" type="qcurve" smooth="yes"/>
      <point x="750" y="239"/>
      <point x="887" y="413"/>
      <point x="887" y="511" type="qcurve" smooth="yes"/>
      <point x="887" y="540" type="line" smooth="yes"/>
      <point x="887" y="637"/>
      <point x="750" y="813"/>
      <point x="580" y="813" type="qcurve" smooth="yes"/>
      <point x="411" y="813"/>
      <point x="275" y="637"/>
    </contour>
    <contour>
      <point x="683" y="547" type="line"/>
      <point x="415" y="109" type="line"/>
      <point x="414" y="90" type="line"/>
      <point x="297" y="-108" type="line"/>
      <point x="82" y="-108" type="line"/>
      <point x="279" y="225" type="line"/>
      <point x="300" y="245" type="line"/>
      <point x="521" y="616" type="line"/>
    </contour>
    <contour>
      <point x="1065" y="1182" type="line"/>
      <point x="855" y="826" type="line"/>
      <point x="834" y="807" type="line"/>
      <point x="632" y="464" type="line"/>
      <point x="471" y="533" type="line"/>
      <point x="724" y="952" type="line"/>
      <point x="724" y="969" type="line"/>
      <point x="850" y="1182" type="line"/>
    </contour>
  </outline>
</glyph>
<glyph name="quoteright" format="1">
  <advance width="440"/>
  <unicode hex="2019"/>
  <outline>
    <contour>
      <point x="40" y="876" type="qcurve"/>
      <point x="145" y="746" type="line"/>
      <point x="224" y="834"/>
      <point x="320" y="1088"/>
      <point x="320" y="1238" type="qcurve" smooth="yes"/>
      <point x="320" y="1456" type="line"/>
      <point x="140" y="1456" type="line"/>
      <point x="140" y="1238" type="line" smooth="yes"/>
      <point x="140" y="1126"/>
      <point x="88" y="954"/>
    </contour>
  </outline>
</glyph>
<glyph name="quotesinglbase" format="1">
  <advance width="440"/>
  <unicode hex="201A"/>
  <outline>
    <contour>
      <point x="40" y="-250" type="qcurve"/>
      <point x="145" y="-380" type="line"/>
      <point x="224" y="-292"/>
      <point x="320" y="-38"/>
      <point x="320" y="112" type="qcurve" smooth="yes"/>
      <point x="320" y="330" type="line"/>
      <point x="140" y="330" type="line"/>
      <point x="140" y="112" type="line" smooth="yes"/>
      <point x="140" y="0"/>
      <point x="88" y="-172"/>
    </contour>
  </outline>
</glyph>
<glyph name="V" format="1">
  <advance width="1260"/>
  <outline>
    <contour>
      <point x="0" y="1456" type="line"/>
      <point x="544" y="0" type="line"/>
      <point x="716" y="0" type="line"/>
      <point x="1260" y="1456" type="line"/>
      <point x="1064" y="1456" type="line"/>
      <point x="674" y="488" type="line" smooth="yes"/>
      <point x="662" y="455"/>
      <point x="644" y="393"/>
      <point x="637" y="360" type="qcurve"/>
      <point x="627" y="360" type="line"/>
      <point x="620" y="393"/>
      <point x="602" y="455"/>
      <point x="590" y="488" type="qcurve" smooth="yes"/>
      <point x="204" y="1456" type="line"/>
    </contour>
  </outline>
</glyph>
<glyph name="W" format="1">
  <advance width="1812"/>
  <outline>
    <contour>
      <point x="408" y="0" type="line"/>
      <point x="596" y="0" type="line"/>
      <point x="882" y="960" type="line" smooth="yes"/>
      <point x="891" y="994"/>
      <point x="900" y="1055"/>
      <point x="903" y="1088" type="qcurve"/>
      <point x="909" y="1088" type="line"/>
      <point x="912" y="1055"/>
      <point x="921" y="994"/>
      <point x="930" y="960" type="qcurve" smooth="yes"/>
      <point x="1216" y="0" type="line"/>
      <point x="1404" y="0" type="line"/>
      <point x="1762" y="1456" type="line"/>
      <point x="1570" y="1456" type="line"/>
      <point x="1331" y="489" type="line" smooth="yes"/>
      <point x="1323" y="455"/>
      <point x="1316" y="394"/>
      <point x="1313" y="361" type="qcurve"/>
      <point x="1307" y="361" type="line"/>
      <point x="1304" y="394"/>
      <point x="1298" y="455"/>
      <point x="1289" y="489" type="qcurve" smooth="yes"/>
      <point x="1006" y="1456" type="line"/>
      <point x="808" y="1456" type="line"/>
      <point x="535" y="488" type="line" smooth="yes"/>
      <point x="526" y="454"/>
      <point x="520" y="393"/>
      <point x="517" y="360" type="qcurve"/>
      <point x="511" y="360" type="line"/>
      <point x="508" y="393"/>
      <point x="501" y="454"/>
      <point x="493" y="488" type="qcurve" smooth="yes"/>
      <point x="244" y="1456" type="line"/>
      <point x="50" y="1456" type="line"/>
    </contour>
  </outline>
</glyph>
<glyph name="four.pnum" format="1">
  <advance width="1070"/>
  <outline>
    <contour>
      <point x="674" y="0" type="line"/>
      <point x="854" y="0" type="line"/>
      <point x="854" y="1456" type="line"/>
      <point x="682" y="1456" type="line"/>
      <point x="0" y="600" type="line"/>
      <point x="0" y="320" type="line"/>
      <point x="1058" y="320" type="line"/>
      <point x="1058" y="580" type="line"/>
      <point x="802" y="580" type="line"/>
      <point x="725" y="580" type="line"/>
      <point x="219" y="580" type="line"/>
      <point x="662" y="1050" type="line"/>
      <point x="674" y="1050" type="line"/>
      <point x="674" y="450" type="line"/>
      <point x="674" y="398" type="line"/>
    </contour>
  </outline>
</glyph>
<glyph name="nine.pnum" format="1">
  <advance width="1156"/>
  <outline>
    <contour>
      <point x="72" y="992" type="qcurve" smooth="yes"/>
      <point x="72.0" y="771.5186721991702"/>
      <point x="317.0" y="500.0"/>
      <point x="516" y="500" type="qcurve" smooth="yes"/>
      <point x="716.0" y="500.0"/>
      <point x="956.0" y="772.0"/>
      <point x="956" y="992" type="qcurve"/>
      <point x="886" y="992" type="line"/>
      <point x="886.0" y="886.2358490566038"/>
      <point x="686.0" y="770.0"/>
      <point x="556" y="770" type="qcurve" smooth="yes"/>
      <point x="416.0" y="770.0"/>
      <point x="262.0" y="886.2358490566038"/>
      <point x="262" y="992" type="qcurve" smooth="yes"/>
      <point x="262.0" y="1098.766355140187"/>
      <point x="416.0" y="1216.0"/>
      <point x="556" y="1216" type="qcurve" smooth="yes"/>
      <point x="696.0" y="1216.0"/>
      <point x="880" y="1050.8235294117646"/>
      <point x="880" y="852" type="qcurve" smooth="yes"/>
      <point x="880" y="802" type="line" smooth="yes"/>
      <point x="880" y="515.3531157270029"/>
      <point x="556.0" y="250"/>
      <point x="276" y="250" type="qcurve" smooth="yes"/>
      <point x="256" y="250" type="line"/>
      <point x="256" y="-30" type="line"/>
      <point x="276" y="-30" type="line" smooth="yes"/>
      <point x="656.0" y="-30"/>
      <point x="1068" y="432.0"/>
      <point x="1068" y="812" type="qcurve" smooth="yes"/>
      <point x="1068" y="842" type="line" smooth="yes"/>
      <point x="1068" y="1182.0"/>
      <point x="766.0" y="1486.0"/>
      <point x="556" y="1486" type="qcurve" smooth="yes"/>
      <point x="346.0" y="1486.0"/>
      <point x="72.0" y="1212.4628099173553"/>
    </contour>
  </outline>
</glyph>
<glyph name="seven.pnum" format="1">
  <advance width="900"/>
  <outline>
    <contour>
      <point x="900" y="1456" type="line"/>
      <point x="900" y="1256" type="line"/>
      <point x="332" y="0" type="line"/>
      <point x="106" y="0" type="line"/>
      <point x="660" y="1191" type="line"/>
      <point x="0" y="1191" type="line"/>
      <point x="0" y="1456" type="line"/>
    </contour>
  </outline>
</glyph>
<glyph name="six.pnum" format="1">
  <advance width="1156"/>
  <outline>
    <contour>
      <point x="88" y="614" type="line" smooth="yes"/>
      <point x="88" y="274.0"/>
      <point x="390.0" y="-30.0"/>
      <point x="600" y="-30" type="qcurve" smooth="yes"/>
      <point x="810.0" y="-30.0"/>
      <point x="1084.0" y="249.54655870445345"/>
      <point x="1084" y="474" type="qcurve" smooth="yes"/>
      <point x="1084.0" y="698.4715447154472"/>
      <point x="840.0" y="976.0"/>
      <point x="640" y="976" type="qcurve" smooth="yes"/>
      <point x="440.0" y="976.0"/>
      <point x="200.0" y="698.4715447154472"/>
      <point x="200" y="474" type="qcurve"/>
      <point x="270" y="474" type="line"/>
      <point x="270.0" y="584.7747747747748"/>
      <point x="470.0" y="706.0"/>
      <point x="600" y="706" type="qcurve" smooth="yes"/>
      <point x="740.0" y="706.0"/>
      <point x="894.0" y="584.7747747747748"/>
      <point x="894" y="474" type="qcurve" smooth="yes"/>
      <point x="894.0" y="362.2232142857143"/>
      <point x="740.0" y="240.0"/>
      <point x="600" y="240" type="qcurve" smooth="yes"/>
      <point x="460.0" y="240.0"/>
      <point x="276" y="405.1764705882353"/>
      <point x="276" y="604" type="qcurve" smooth="yes"/>
      <point x="276" y="654" type="line" smooth="yes"/>
      <point x="276" y="940.646884272997"/>
      <point x="600" y="1206"/>
      <point x="880" y="1206" type="qcurve" smooth="yes"/>
      <point x="900" y="1206" type="line"/>
      <point x="900" y="1486" type="line"/>
      <point x="880" y="1486" type="line" smooth="yes"/>
      <point x="500" y="1486"/>
      <point x="88" y="1024.0"/>
      <point x="88" y="644" type="qcurve" smooth="yes"/>
    </contour>
  </outline>
</glyph>
<glyph name="three.pnum" format="1">
  <advance width="1112"/>
  <outline>
    <contour>
      <point x="50" y="420" type="line" smooth="yes"/>
      <point x="50" y="222"/>
      <point x="318.0" y="-30.0"/>
      <point x="528" y="-30" type="qcurve" smooth="yes"/>
      <point x="738.0" y="-30.0"/>
      <point x="1012.0" y="210.46563192904657"/>
      <point x="1012" y="420" type="qcurve" smooth="yes"/>
      <point x="1012.0" y="551.3841642228739"/>
      <point x="860.0" y="726.8964074445738"/>
      <point x="734" y="762" type="qcurve"/>
      <point x="734" y="766" type="line"/>
      <point x="850.0" y="822.9819578443154"/>
      <point x="960" y="986"/>
      <point x="960" y="1080" type="qcurve" smooth="yes"/>
      <point x="960" y="1259"/>
      <point x="718.0" y="1486.0"/>
      <point x="528" y="1486" type="qcurve" smooth="yes"/>
      <point x="338.0" y="1486.0"/>
      <point x="90" y="1237"/>
      <point x="90" y="1060" type="qcurve" smooth="yes"/>
      <point x="90" y="1050" type="line"/>
      <point x="276" y="1050" type="line"/>
      <point x="276" y="1060" type="line" smooth="yes"/>
      <point x="276" y="1135.1807228915663"/>
      <point x="418.0" y="1216.0"/>
      <point x="528" y="1216" type="qcurve" smooth="yes"/>
      <point x="638.0" y="1216.0"/>
      <point x="768.0" y="1139.0684931506848"/>
      <point x="768" y="1060" type="qcurve" smooth="yes"/>
      <point x="768.0" y="979.7222222222222"/>
      <point x="618.0" y="890"/>
      <point x="480" y="890" type="qcurve" smooth="yes"/>
      <point x="375" y="890" type="line"/>
      <point x="375" y="620" type="line"/>
      <point x="490" y="620" type="line" smooth="yes"/>
      <point x="640.0" y="620"/>
      <point x="818.0" y="529.0526315789474"/>
      <point x="818" y="440" type="qcurve" smooth="yes"/>
      <point x="818.0" y="337.89473684210526"/>
      <point x="660.0" y="240.0"/>
      <point x="528" y="240" type="qcurve" smooth="yes"/>
      <point x="396.0" y="240.0"/>
      <point x="236" y="334.7368421052632"/>
      <point x="236" y="420" type="qcurve" smooth="yes"/>
      <point x="236" y="430" type="line"/>
      <point x="50" y="430" type="line"/>
    </contour>
  </outline>
</glyph>
